PathFileType	4	(X/Y/Z)	OpenSim_Sub10_CSStiffKnee_Magnet.trc
DataRate	CameraRate	NumFrames	NumMarkers	Units	OrigDataRate	OrigDataStartFrame	OrigNumFrames
100	100	26	8	m	100	1022	8174
Frame#	Time	torso_imu_offset_imu	pelvis_imu_offset_imu	tibia_r_imu_offset_imu	femur_r_imu_offset_imu	tibia_l_imu_offset_imu	femur_l_imu_offset_imu	toes_r_imu_offset_imu	toes_l_imu_offset_imu
				X1	Y1	Z1	X2	Y2	Z2	X3	Y3	Z3	X4	Y4	Z4	X5	Y5	Z5	X6	Y6	Z6	X7	Y7	Z7	X8		Y8	Z8	

1022	10.21000000	-0.92425028	-0.08773303	0.19840195	-0.59422935	0.13297945	-0.72109630	-0.81124353	-0.35013016	-0.20135772	-0.83880165	-0.14235214	0.02004575	-0.53262470	0.54261019	0.32935664	-0.55408860	0.35078416	0.34524682	-0.58540905	-0.19034455	-0.48905180	-0.77299919	-0.16849348	-0.32050421
1023	10.22000000	-0.92332361	-0.08038271	0.19769236	-0.59698055	0.12551439	-0.72259278	-0.80294265	-0.36270952	-0.19247361	-0.83587791	-0.14531504	0.02630494	-0.52750827	0.54931009	0.32824382	-0.54625483	0.36071192	0.33778672	-0.61598292	-0.18552275	-0.45172359	-0.78158925	-0.17211927	-0.30486745
1024	10.23000000	-0.92719830	-0.07519602	0.19807884	-0.58994996	0.12057117	-0.72503630	-0.79977314	-0.37872419	-0.17074223	-0.83185998	-0.14441965	0.03170837	-0.52246843	0.56294555	0.32710811	-0.54348611	0.37107853	0.32812954	-0.63676956	-0.19125636	-0.43109071	-0.78622223	-0.17470234	-0.28527081
1025	10.24000000	-0.92697899	-0.07320551	0.19468858	-0.58815168	0.11427168	-0.72612792	-0.79614746	-0.40365065	-0.14835596	-0.83676867	-0.15160021	0.03560255	-0.50947154	0.57416051	0.31851356	-0.55091443	0.37375864	0.32513960	-0.64119165	-0.20121785	-0.41119142	-0.78912515	-0.18312873	-0.26553212
1026	10.25000000	-0.92883302	-0.06672603	0.19219450	-0.58375025	0.10885103	-0.73336940	-0.78445789	-0.41926920	-0.14116756	-0.83092072	-0.16031815	0.04736177	-0.49803204	0.58757487	0.31675976	-0.54992077	0.37735899	0.31895400	-0.65259613	-0.19009230	-0.39981694	-0.80292970	-0.18765078	-0.24849319
1027	10.26000000	-0.93191593	-0.06117801	0.19316230	-0.58062279	0.10503807	-0.73809766	-0.77529057	-0.42176651	-0.15327932	-0.82412644	-0.16385321	0.06230131	-0.48991371	0.59522798	0.30789073	-0.55056049	0.38077336	0.32039752	-0.65265477	-0.20660884	-0.37951032	-0.81146772	-0.19326063	-0.21940902
1028	10.27000000	-0.93723170	-0.05379675	0.18909057	-0.58052608	0.10286447	-0.73355605	-0.76686645	-0.42936725	-0.15897048	-0.82411343	-0.17363749	0.06285486	-0.47950173	0.60189075	0.29751967	-0.55329336	0.38095644	0.31443695	-0.65326507	-0.21662202	-0.37859424	-0.80803845	-0.19509965	-0.18308750
1029	10.28000000	-0.93179622	-0.05039349	0.18926833	-0.58497384	0.10300577	-0.73305686	-0.75863608	-0.44518856	-0.15494329	-0.82408583	-0.17192582	0.06375647	-0.47132728	0.61868433	0.29702869	-0.55244176	0.38363753	0.30483932	-0.65182028	-0.21295157	-0.37351726	-0.81428052	-0.20251226	-0.15072623
1030	10.29000000	-0.93413308	-0.04896578	0.18669569	-0.58774031	0.09717732	-0.73510391	-0.75429025	-0.46550616	-0.14590437	-0.82419745	-0.17120323	0.07232619	-0.46272077	0.63164674	0.29046579	-0.55513745	0.38734957	0.29735891	-0.65538203	-0.21637620	-0.36819591	-0.82306759	-0.20889019	-0.12276760
1031	10.30000000	-0.93597911	-0.04317086	0.17888197	-0.58770394	0.09216995	-0.73079356	-0.74395393	-0.47888419	-0.13241837	-0.82358142	-0.17498690	0.06632283	-0.44511559	0.64679720	0.28167614	-0.56191570	0.38678727	0.28800564	-0.65887428	-0.21890158	-0.37207375	-0.82193689	-0.21281607	-0.09184699
1032	10.31000000	-0.93403297	-0.04372320	0.18232870	-0.59287942	0.08908464	-0.73147750	-0.73440739	-0.48964848	-0.11745940	-0.82576432	-0.17819267	0.06606163	-0.43112451	0.66166802	0.28078648	-0.57383398	0.38342821	0.27889445	-0.65373050	-0.22448736	-0.37121879	-0.82193031	-0.21114811	-0.04817295
1033	10.32000000	-0.93776841	-0.04231571	0.18641990	-0.59007839	0.07824301	-0.73659569	-0.72813338	-0.50304464	-0.10037789	-0.82246865	-0.19033858	0.07539486	-0.42529040	0.66901164	0.27490271	-0.57703763	0.38468649	0.27175764	-0.65246320	-0.22199704	-0.36981593	-0.82576483	-0.20370502	-0.01023659
1034	10.33000000	-0.93659948	-0.03869007	0.18152885	-0.59295326	0.07484648	-0.74001714	-0.73192487	-0.50337879	-0.09949702	-0.81480968	-0.20371116	0.07966708	-0.40694013	0.67644395	0.26634669	-0.58209906	0.38294999	0.26245107	-0.65173575	-0.22532720	-0.36931024	-0.82408215	-0.19818479	0.01480135
1035	10.34000000	-0.93609850	-0.03641602	0.18231361	-0.59249335	0.07095591	-0.73965925	-0.73021478	-0.50257098	-0.09904305	-0.80955088	-0.21856787	0.08202209	-0.38989713	0.68677957	0.27653483	-0.58913301	0.37879386	0.25104666	-0.64807177	-0.23210738	-0.36617294	-0.81913816	-0.19688230	0.04510197
1036	10.35000000	-0.93431259	-0.02814755	0.17807960	-0.59285840	0.06056832	-0.74464270	-0.72919317	-0.50170499	-0.09746682	-0.80535890	-0.24301696	0.08624134	-0.37515293	0.68822518	0.28631100	-0.60158838	0.36973344	0.24918461	-0.65220354	-0.23514269	-0.36550232	-0.82426253	-0.18716454	0.07798498
1037	10.36000000	-0.93706090	-0.02541223	0.17699211	-0.59318926	0.05773890	-0.74539159	-0.73375387	-0.50605116	-0.09224254	-0.79774465	-0.26092034	0.08342652	-0.36330536	0.68838506	0.29053865	-0.61090604	0.36119546	0.24307843	-0.65303749	-0.23267798	-0.36734602	-0.82494776	-0.17942954	0.09937088
1038	10.37000000	-0.93631815	-0.02172525	0.17372578	-0.58590305	0.05633471	-0.74685760	-0.72394905	-0.51252363	-0.09356746	-0.79001175	-0.27898791	0.07750460	-0.34480543	0.69749614	0.30753633	-0.61355650	0.35303602	0.23134480	-0.65520030	-0.23227862	-0.36512750	-0.82072227	-0.17166702	0.11762323
1039	10.38000000	-0.93440914	-0.01814486	0.17127241	-0.58311175	0.04087038	-0.74868934	-0.72535421	-0.51712465	-0.09667051	-0.78159463	-0.29521587	0.06692562	-0.32754617	0.69961509	0.32067131	-0.61977064	0.34894965	0.22738290	-0.65376309	-0.23325445	-0.35810597	-0.82075482	-0.17028318	0.12911279
1040	10.39000000	-0.94121339	-0.02035959	0.17506334	-0.59225019	0.03450135	-0.74956977	-0.72920360	-0.51562095	-0.08956474	-0.77588510	-0.30711407	0.06466175	-0.31106889	0.69707575	0.32218246	-0.62547749	0.34155996	0.22373390	-0.65498023	-0.23584759	-0.35848091	-0.81935631	-0.15763590	0.13296828
1041	10.40000000	-0.94077891	-0.01288178	0.17395755	-0.58803684	0.03176741	-0.75033138	-0.72557964	-0.51468729	-0.08792561	-0.77735274	-0.31762078	0.06482851	-0.29977191	0.70163438	0.32940303	-0.63514845	0.33191324	0.22209637	-0.65321706	-0.23800313	-0.36135930	-0.81974387	-0.15270881	0.13030726
1042	10.41000000	-0.93944467	-0.01512061	0.17235998	-0.59098267	0.02658393	-0.75152536	-0.72479758	-0.51738860	-0.08355434	-0.77591899	-0.32361481	0.06714516	-0.29354520	0.70852781	0.33086909	-0.64192816	0.31854320	0.22153659	-0.65646328	-0.23548300	-0.35897039	-0.82307374	-0.14558357	0.12705942
1043	10.42000000	-0.94226904	-0.01118667	0.17508121	-0.59549481	0.01857685	-0.75256936	-0.72638051	-0.51950443	-0.08016595	-0.76926393	-0.33252223	0.06838458	-0.29222048	0.71552537	0.32043745	-0.64577591	0.30816183	0.21816383	-0.65436164	-0.22954273	-0.36002304	-0.82461506	-0.14121988	0.11272920
1044	10.43000000	-0.93633232	-0.00522803	0.17034432	-0.59211494	0.00975407	-0.75180858	-0.72700234	-0.52044341	-0.08155986	-0.76467783	-0.34155041	0.06687477	-0.29642176	0.71929405	0.30005894	-0.64737416	0.30208939	0.22066525	-0.65706290	-0.23446793	-0.35875777	-0.83039173	-0.13876532	0.09219920
1045	10.44000000	-0.93884134	-0.00625486	0.17048202	-0.59582873	0.00520175	-0.75302718	-0.72826571	-0.52016528	-0.08751245	-0.76504992	-0.35147659	0.06849659	-0.30355268	0.72288373	0.28165458	-0.64692248	0.29719210	0.22389038	-0.65877474	-0.23648644	-0.35318785	-0.83414743	-0.13547571	0.06565785
1046	10.45000000	-0.93858410	0.00026457	0.17252528	-0.59652839	0.00024824	-0.75581365	-0.72981608	-0.52047948	-0.08986827	-0.75901576	-0.35856469	0.07426133	-0.31467358	0.72593003	0.26327961	-0.64673682	0.29119350	0.22799291	-0.65667650	-0.23724835	-0.35353914	-0.83971797	-0.13274477	0.03157373
1047	10.46000000	-0.94044972	-0.00030690	0.17488563	-0.59269738	-0.00871964	-0.75463482	-0.72734280	-0.51950079	-0.09306485	-0.75387224	-0.36995431	0.08153283	-0.33439496	0.72882217	0.24671212	-0.64760148	0.28803034	0.22863856	-0.66141650	-0.23302957	-0.35300329	-0.84206008	-0.12200101	-0.00136918
